# xmcd CD Database Entry
#
# Track frame offsets:
# 150
# 14802
# 30236
# 58406
# 76319
# 99638
# 117033
# 132173
# 144946
# 158248
#
# Disc length: 2339 seconds
#
# Revision: 1
# Processed by: cddbd v1.4PL0 Copyright (c) Steve Scherf et al.
# Submitted via: tcd 2.0b
#
DISCID=7e09210a
DTITLE=Ken Layne and the Corvids - Fought Down
DYEAR=1900
DGENRE=
TTITLE0=Ain't They Pretty
TTITLE1=Fought Down
TTITLE2=I Should Be That Guy
TTITLE3=The Sun Don't Shine
TTITLE4=Mama, Take Another Stand
TTITLE5=Lincoln Town Car
TTITLE6=Here's to You
TTITLE7=Worried
TTITLE8=Glitter On
TTITLE9=Like a Train
EXTD=
EXTT0=
EXTT1=
EXTT2=
EXTT3=
EXTT4=
EXTT5=
EXTT6=
EXTT7=
EXTT8=
EXTT9=
PLAYORDER=
